<mxfile host="app.diagrams.net" modified="2023-05-11T18:55:09.466Z" agent="Mozilla/5.0 (X11; Ubuntu; Linux x86_64; rv:109.0) Gecko/20100101 Firefox/112.0" version="21.2.9" etag="eWTpURq4PucauwyStxyg" type="github">
  <diagram name="PÃ¡gina-1" id="2da7S10atX4_obstYyOf">
    <mxGraphModel>
      <root>
        <mxCell id="0" />
        <mxCell id="1" parent="0" />
      </root>
    </mxGraphModel>
  </diagram>
</mxfile>
